# MagicaVoxel @ Ephtracy

# group
o 

# material
mtllib Slime.mtl
usemtl palette

# normals
vn -1 0 0
vn 1 0 0
vn 0 0 1
vn 0 0 -1
vn 0 -1 0
vn 0 1 0

# texcoords
vt 0.744141 0.5
vt 0.880859 0.5
vt 0.892578 0.5
vt 0.958984 0.5

# verts
v -2 0 2
v -2 0 -2.38419e-07
v -2 0 -0.7
v -2 0 -1.1
v -2 0 -1.2
v -2 0 -2
v -2 0.1 2
v -2 0.1 1.9
v -2 0.1 1.7
v -2 0.1 -1.1
v -2 0.1 -1.2
v -2 0.2 2
v -2 0.2 1.9
v -2 0.4 2
v -2 0.4 1.7
v -2 0.6 -2.38419e-07
v -2 0.6 -0.7
v -2 0.7 0.8
v -2 0.7 0.6
v -2 0.7 0.5
v -2 0.7 -1.5
v -2 0.7 -1.6
v -2 0.7 -1.7
v -2 0.7 -1.8
v -2 0.8 -1.6
v -2 0.8 -1.7
v -2 0.9 0.8
v -2 0.9 0.6
v -2 1 -1.5
v -2 1 -1.8
v -2 1.1 0.8
v -2 1.1 0.5
v -2 1.5 1.4
v -2 1.5 0.9
v -2 1.7 -0.8
v -2 1.7 -1.5
v -2 2.8 1.4
v -2 2.8 0.9
v -2 2.9 -0.8
v -2 2.9 -1.5
v -2 3.2 -2.38419e-07
v -2 3.2 -0.1
v -2 3.3 -2.38419e-07
v -2 3.3 -0.1
v -2 3.4 1.5
v -2 3.4 1.2
v -2 3.7 1.5
v -2 3.7 1.2
v -2 3.7 -1.4
v -2 3.7 -1.6
v -2 3.9 2
v -2 3.9 -1.4
v -2 3.9 -1.6
v -2 3.9 -2
v 2 0 2
v 2 0 -2
v 2 1 -0.2
v 2 1 -0.7
v 2 1.9 1.2
v 2 1.9 0.8
v 2 2 -0.2
v 2 2 -0.7
v 2 2.4 1.2
v 2 2.4 0.8
v 2 2.9 -2.38419e-07
v 2 2.9 -0.5
v 2 3.2 -2.38419e-07
v 2 3.2 -0.5
v 2 3.9 2
v 2 3.9 -2
v -2 0 2
v -2 0.1 2
v -2 0.2 2
v -2 0.4 2
v -2 3.9 2
v -1.9 0.1 2
v -1.9 0.2 2
v -1.9 0.4 2
v -0.7 0.4 2
v -0.7 0.8 2
v -0.6 0.5 2
v -0.6 0.6 2
v -0.5 0.5 2
v -0.5 0.6 2
v -0.5 2 2
v -0.5 2.4 2
v -0.4 0.4 2
v -0.4 0.8 2
v -0.4 2.1 2
v -0.4 2.2 2
v -0.3 2.1 2
v -0.3 2.2 2
v -0.0999999 2 2
v -0.0999999 2.4 2
v 1.1 0 2
v 1.1 0.6 2
v 1.2 2.7 2
v 1.2 3.3 2
v 1.4 0 2
v 1.4 0.3 2
v 1.4 2.7 2
v 1.4 3 2
v 1.6 2.7 2
v 1.6 3 2
v 1.8 0 2
v 1.8 0.3 2
v 1.8 2.7 2
v 1.8 3.3 2
v 1.9 0 2
v 1.9 0.6 2
v 2 0 2
v 2 3.9 2
v -2 0 -2
v -2 3.9 -2
v -1.7 0.2 -2
v -1.7 0.5 -2
v -1.3 0.2 -2
v -1.3 0.5 -2
v -0.5 1.5 -2
v -0.5 2.8 -2
v -0.4 1.6 -2
v -0.4 1.8 -2
v -0.2 1.6 -2
v -0.2 1.8 -2
v 2.38419e-07 1.5 -2
v 2.38419e-07 2.8 -2
v 0.5 0.8 -2
v 0.5 1.7 -2
v 0.6 0.8 -2
v 0.6 1.2 -2
v 0.6 2.6 -2
v 0.6 3 -2
v 0.8 0.8 -2
v 0.8 1.2 -2
v 1.1 0.8 -2
v 1.1 1.7 -2
v 1.2 2.6 -2
v 1.2 3 -2
v 2 0 -2
v 2 3.9 -2
v -2 0 2
v 1.1 0 2
v 1.4 0 2
v 1.8 0 2
v 1.9 0 2
v 2 0 2
v 1.1 0 1.9
v 1.4 0 1.9
v 1.8 0 1.9
v 1.9 0 1.9
v -2 0 -2.38419e-07
v -1.9 0 -2.38419e-07
v -2 0 -0.7
v -1.9 0 -0.7
v -2 0 -1.1
v -1.9 0 -1.1
v -2 0 -1.2
v -1.9 0 -1.2
v -2 0 -2
v 2 0 -2
v -2 3.9 2
v 2 3.9 2
v 1.2 3.9 1.7
v 1.7 3.9 1.7
v 1.2 3.9 1.1
v 1.7 3.9 1.1
v -0.0999999 3.9 0.8
v 0.3 3.9 0.8
v -0.0999999 3.9 0.5
v 0.3 3.9 0.5
v 0.2 3.9 -0.7
v 0.6 3.9 -0.7
v 0.2 3.9 -1.2
v 0.6 3.9 -1.2
v -2 3.9 -1.4
v -1.9 3.9 -1.4
v -2 3.9 -1.6
v -1.9 3.9 -1.6
v -2 3.9 -2
v 2 3.9 -2

# faces
f 7/3/1 2/3/1 1/3/1
f 8/3/1 2/3/1 7/3/1
f 9/3/1 2/3/1 8/3/1
f 10/3/1 4/3/1 3/3/1
f 10/1/1 5/1/1 4/1/1
f 11/3/1 6/3/1 5/3/1
f 11/1/1 5/1/1 10/1/1
f 12/4/1 8/4/1 7/4/1
f 13/1/1 9/1/1 8/1/1
f 13/4/1 8/4/1 12/4/1
f 14/1/1 13/1/1 12/1/1
f 15/3/1 2/3/1 9/3/1
f 15/1/1 13/1/1 14/1/1
f 15/1/1 9/1/1 13/1/1
f 16/2/1 3/2/1 2/2/1
f 16/3/1 2/3/1 15/3/1
f 16/3/1 15/3/1 14/3/1
f 17/3/1 10/3/1 3/3/1
f 17/2/1 3/2/1 16/2/1
f 17/3/1 11/3/1 10/3/1
f 18/3/1 16/3/1 14/3/1
f 18/3/1 17/3/1 16/3/1
f 19/3/1 17/3/1 18/3/1
f 20/3/1 17/3/1 19/3/1
f 21/3/1 11/3/1 17/3/1
f 21/3/1 17/3/1 20/3/1
f 21/3/1 6/3/1 11/3/1
f 22/3/1 6/3/1 21/3/1
f 23/3/1 6/3/1 22/3/1
f 24/3/1 6/3/1 23/3/1
f 25/1/1 22/1/1 21/1/1
f 25/4/1 23/4/1 22/4/1
f 26/1/1 24/1/1 23/1/1
f 26/4/1 23/4/1 25/4/1
f 27/4/1 19/4/1 18/4/1
f 27/3/1 18/3/1 14/3/1
f 28/1/1 20/1/1 19/1/1
f 28/4/1 19/4/1 27/4/1
f 29/1/1 26/1/1 25/1/1
f 29/3/1 21/3/1 20/3/1
f 29/1/1 25/1/1 21/1/1
f 30/1/1 24/1/1 26/1/1
f 30/1/1 26/1/1 29/1/1
f 30/3/1 6/3/1 24/3/1
f 31/3/1 27/3/1 14/3/1
f 31/1/1 28/1/1 27/1/1
f 32/3/1 29/3/1 20/3/1
f 32/1/1 28/1/1 31/1/1
f 32/1/1 20/1/1 28/1/1
f 32/3/1 30/3/1 29/3/1
f 33/3/1 31/3/1 14/3/1
f 33/3/1 32/3/1 31/3/1
f 34/3/1 32/3/1 33/3/1
f 35/3/1 30/3/1 32/3/1
f 35/3/1 32/3/1 34/3/1
f 36/3/1 30/3/1 35/3/1
f 37/2/1 34/2/1 33/2/1
f 37/3/1 33/3/1 14/3/1
f 38/3/1 35/3/1 34/3/1
f 38/2/1 34/2/1 37/2/1
f 39/2/1 36/2/1 35/2/1
f 39/3/1 35/3/1 38/3/1
f 39/3/1 38/3/1 37/3/1
f 40/3/1 30/3/1 36/3/1
f 40/2/1 36/2/1 39/2/1
f 41/3/1 39/3/1 37/3/1
f 41/3/1 40/3/1 39/3/1
f 42/3/1 40/3/1 41/3/1
f 43/3/1 41/3/1 37/3/1
f 43/1/1 42/1/1 41/1/1
f 44/3/1 40/3/1 42/3/1
f 44/1/1 42/1/1 43/1/1
f 45/3/1 37/3/1 14/3/1
f 45/3/1 43/3/1 37/3/1
f 45/3/1 44/3/1 43/3/1
f 46/3/1 44/3/1 45/3/1
f 47/3/1 45/3/1 14/3/1
f 47/1/1 46/1/1 45/1/1
f 48/3/1 44/3/1 46/3/1
f 48/1/1 46/1/1 47/1/1
f 49/3/1 40/3/1 44/3/1
f 49/3/1 44/3/1 48/3/1
f 50/3/1 30/3/1 40/3/1
f 50/3/1 40/3/1 49/3/1
f 51/3/1 49/3/1 48/3/1
f 51/3/1 48/3/1 47/3/1
f 51/3/1 47/3/1 14/3/1
f 52/1/1 50/1/1 49/1/1
f 52/3/1 49/3/1 51/3/1
f 53/3/1 30/3/1 50/3/1
f 53/1/1 50/1/1 52/1/1
f 54/3/1 6/3/1 30/3/1
f 54/3/1 30/3/1 53/3/1
f 55/3/2 56/3/2 57/3/2
f 57/3/2 56/3/2 58/3/2
f 55/3/2 57/3/2 59/3/2
f 59/3/2 57/3/2 60/3/2
f 57/1/2 58/1/2 61/1/2
f 60/3/2 57/3/2 61/3/2
f 58/3/2 56/3/2 62/3/2
f 61/1/2 58/1/2 62/1/2
f 59/1/2 60/1/2 63/1/2
f 55/3/2 59/3/2 63/3/2
f 60/3/2 61/3/2 64/3/2
f 63/1/2 60/1/2 64/1/2
f 61/3/2 62/3/2 64/3/2
f 63/3/2 64/3/2 65/3/2
f 64/3/2 62/3/2 65/3/2
f 65/3/2 62/3/2 66/3/2
f 63/3/2 65/3/2 67/3/2
f 65/1/2 66/1/2 67/1/2
f 66/3/2 62/3/2 68/3/2
f 67/1/2 66/1/2 68/1/2
f 55/3/2 63/3/2 69/3/2
f 63/3/2 67/3/2 69/3/2
f 67/3/2 68/3/2 69/3/2
f 68/3/2 62/3/2 70/3/2
f 69/3/2 68/3/2 70/3/2
f 62/3/2 56/3/2 70/3/2
f 76/3/3 72/3/3 71/3/3
f 76/4/3 73/4/3 72/4/3
f 77/1/3 74/1/3 73/1/3
f 77/4/3 73/4/3 76/4/3
f 78/3/3 75/3/3 74/3/3
f 78/1/3 74/1/3 77/1/3
f 79/3/3 77/3/3 76/3/3
f 79/3/3 75/3/3 78/3/3
f 79/3/3 78/3/3 77/3/3
f 80/3/3 75/3/3 79/3/3
f 81/1/3 80/1/3 79/1/3
f 82/1/3 80/1/3 81/1/3
f 83/1/3 81/1/3 79/1/3
f 83/4/3 82/4/3 81/4/3
f 84/1/3 80/1/3 82/1/3
f 84/4/3 82/4/3 83/4/3
f 85/3/3 75/3/3 80/3/3
f 86/3/3 75/3/3 85/3/3
f 87/3/3 79/3/3 76/3/3
f 87/1/3 83/1/3 79/1/3
f 87/1/3 84/1/3 83/1/3
f 88/1/3 80/1/3 84/1/3
f 88/1/3 84/1/3 87/1/3
f 88/3/3 85/3/3 80/3/3
f 89/1/3 86/1/3 85/1/3
f 90/1/3 86/1/3 89/1/3
f 91/1/3 89/1/3 85/1/3
f 91/4/3 90/4/3 89/4/3
f 92/1/3 86/1/3 90/1/3
f 92/4/3 90/4/3 91/4/3
f 93/3/3 85/3/3 88/3/3
f 93/3/3 88/3/3 87/3/3
f 93/1/3 92/1/3 91/1/3
f 93/1/3 91/1/3 85/1/3
f 94/3/3 75/3/3 86/3/3
f 94/1/3 92/1/3 93/1/3
f 94/1/3 86/1/3 92/1/3
f 95/3/3 76/3/3 71/3/3
f 95/3/3 93/3/3 87/3/3
f 95/3/3 94/3/3 93/3/3
f 95/3/3 87/3/3 76/3/3
f 96/3/3 94/3/3 95/3/3
f 97/3/3 75/3/3 94/3/3
f 97/3/3 94/3/3 96/3/3
f 98/3/3 75/3/3 97/3/3
f 99/1/3 96/1/3 95/1/3
f 100/1/3 96/1/3 99/1/3
f 101/3/3 97/3/3 96/3/3
f 101/1/3 98/1/3 97/1/3
f 102/1/3 98/1/3 101/1/3
f 103/3/3 101/3/3 96/3/3
f 103/4/3 102/4/3 101/4/3
f 104/1/3 98/1/3 102/1/3
f 104/4/3 102/4/3 103/4/3
f 105/4/3 100/4/3 99/4/3
f 106/1/3 96/1/3 100/1/3
f 106/4/3 100/4/3 105/4/3
f 107/3/3 103/3/3 96/3/3
f 107/1/3 104/1/3 103/1/3
f 108/3/3 75/3/3 98/3/3
f 108/1/3 104/1/3 107/1/3
f 108/1/3 98/1/3 104/1/3
f 109/1/3 106/1/3 105/1/3
f 110/3/3 107/3/3 96/3/3
f 110/1/3 106/1/3 109/1/3
f 110/1/3 96/1/3 106/1/3
f 110/3/3 108/3/3 107/3/3
f 111/3/3 110/3/3 109/3/3
f 112/3/3 75/3/3 108/3/3
f 112/3/3 110/3/3 111/3/3
f 112/3/3 108/3/3 110/3/3
f 113/3/4 114/3/4 115/3/4
f 115/3/4 114/3/4 116/3/4
f 113/3/4 115/3/4 117/3/4
f 115/1/4 116/1/4 117/1/4
f 116/3/4 114/3/4 118/3/4
f 117/1/4 116/1/4 118/1/4
f 117/3/4 118/3/4 119/3/4
f 118/3/4 114/3/4 119/3/4
f 119/3/4 114/3/4 120/3/4
f 119/1/4 120/1/4 121/1/4
f 121/1/4 120/1/4 122/1/4
f 119/1/4 121/1/4 123/1/4
f 121/4/4 122/4/4 123/4/4
f 122/1/4 120/1/4 124/1/4
f 123/4/4 122/4/4 124/4/4
f 117/3/4 119/3/4 125/3/4
f 119/1/4 123/1/4 125/1/4
f 123/1/4 124/1/4 125/1/4
f 124/1/4 120/1/4 126/1/4
f 125/1/4 124/1/4 126/1/4
f 120/3/4 114/3/4 126/3/4
f 117/3/4 125/3/4 127/3/4
f 125/3/4 126/3/4 127/3/4
f 127/3/4 126/3/4 128/3/4
f 117/3/4 127/3/4 129/3/4
f 127/1/4 128/1/4 129/1/4
f 129/1/4 128/1/4 130/1/4
f 128/3/4 126/3/4 131/3/4
f 126/3/4 114/3/4 132/3/4
f 131/3/4 126/3/4 132/3/4
f 117/3/4 129/3/4 133/3/4
f 129/4/4 130/4/4 133/4/4
f 130/1/4 128/1/4 134/1/4
f 133/4/4 130/4/4 134/4/4
f 117/3/4 133/3/4 135/3/4
f 133/1/4 134/1/4 135/1/4
f 128/3/4 131/3/4 136/3/4
f 135/1/4 134/1/4 136/1/4
f 134/1/4 128/1/4 136/1/4
f 131/1/4 132/1/4 137/1/4
f 136/3/4 131/3/4 137/3/4
f 135/3/4 136/3/4 137/3/4
f 132/3/4 114/3/4 138/3/4
f 137/1/4 132/1/4 138/1/4
f 113/3/4 117/3/4 139/3/4
f 117/3/4 135/3/4 139/3/4
f 137/3/4 138/3/4 139/3/4
f 135/3/4 137/3/4 139/3/4
f 138/3/4 114/3/4 140/3/4
f 139/3/4 138/3/4 140/3/4
f 147/3/5 142/3/5 141/3/5
f 147/1/5 143/1/5 142/1/5
f 148/4/5 144/4/5 143/4/5
f 148/1/5 143/1/5 147/1/5
f 149/1/5 145/1/5 144/1/5
f 149/4/5 144/4/5 148/4/5
f 150/3/5 146/3/5 145/3/5
f 150/1/5 145/1/5 149/1/5
f 151/3/5 149/3/5 148/3/5
f 151/3/5 148/3/5 147/3/5
f 151/3/5 150/3/5 149/3/5
f 151/3/5 147/3/5 141/3/5
f 152/3/5 150/3/5 151/3/5
f 153/2/5 152/2/5 151/2/5
f 154/3/5 150/3/5 152/3/5
f 154/2/5 152/2/5 153/2/5
f 155/3/5 154/3/5 153/3/5
f 156/3/5 150/3/5 154/3/5
f 156/3/5 154/3/5 155/3/5
f 157/1/5 156/1/5 155/1/5
f 158/3/5 150/3/5 156/3/5
f 158/1/5 156/1/5 157/1/5
f 159/3/5 158/3/5 157/3/5
f 160/3/5 146/3/5 150/3/5
f 160/3/5 158/3/5 159/3/5
f 160/3/5 150/3/5 158/3/5
f 161/3/6 162/3/6 163/3/6
f 163/3/6 162/3/6 164/3/6
f 161/3/6 163/3/6 165/3/6
f 163/1/6 164/1/6 165/1/6
f 164/3/6 162/3/6 166/3/6
f 165/1/6 164/1/6 166/1/6
f 161/3/6 165/3/6 167/3/6
f 165/3/6 166/3/6 167/3/6
f 167/3/6 166/3/6 168/3/6
f 161/3/6 167/3/6 169/3/6
f 167/1/6 168/1/6 169/1/6
f 168/3/6 166/3/6 170/3/6
f 169/1/6 168/1/6 170/1/6
f 169/3/6 170/3/6 171/3/6
f 170/3/6 166/3/6 172/3/6
f 171/3/6 170/3/6 172/3/6
f 169/3/6 171/3/6 173/3/6
f 171/1/6 172/1/6 173/1/6
f 172/3/6 166/3/6 174/3/6
f 173/1/6 172/1/6 174/1/6
f 161/3/6 169/3/6 175/3/6
f 169/3/6 173/3/6 175/3/6
f 173/3/6 174/3/6 175/3/6
f 175/3/6 174/3/6 176/3/6
f 175/1/6 176/1/6 177/1/6
f 176/3/6 174/3/6 178/3/6
f 177/1/6 176/1/6 178/1/6
f 177/3/6 178/3/6 179/3/6
f 166/3/6 162/3/6 180/3/6
f 179/3/6 178/3/6 180/3/6
f 174/3/6 166/3/6 180/3/6
f 178/3/6 174/3/6 180/3/6
