# MagicaVoxel @ Ephtracy

# group
o 

# material
mtllib untitled.mtl
usemtl palette

# normals
vn -1 0 0
vn 1 0 0
vn 0 0 1
vn 0 0 -1
vn 0 -1 0
vn 0 1 0

# texcoords
vt 0.970703 0.5
vt 0.974609 0.5
vt 0.982422 0.5
vt 0.986328 0.5
vt 0.990234 0.5
vt 0.994141 0.5

# verts
v -0.5 0 0.5
v -0.5 0 0.1
v -0.5 0 -0.5
v -0.5 0.1 0.5
v -0.5 0.1 0.1
v -0.5 0.2 0.5
v -0.5 0.2 -0.5
v -0.5 0.3 0.4
v -0.5 0.3 -0.5
v -0.5 0.4 0.5
v -0.5 0.4 0.4
v -0.5 0.4 -0.5
v -0.5 0.6 0.5
v -0.5 0.6 0.4
v -0.5 0.7 0.5
v -0.5 0.7 -0.5
v -0.5 0.8 0.2
v -0.5 0.8 0
v -0.5 0.9 0.5
v -0.5 0.9 0.4
v -0.5 0.9 0.2
v -0.5 0.9 0
v -0.5 0.9 -0.1
v -0.5 0.9 -0.2
v -0.5 0.9 -0.3
v -0.5 1 0.5
v -0.5 1 0.4
v -0.5 1 0.2
v -0.5 1 0
v -0.5 1 -0.1
v -0.5 1 -0.2
v -0.5 1 -0.3
v -0.5 1 -0.5
v 0.5 0 0.5
v 0.5 0 0.4
v 0.5 0 -0.5
v 0.5 0.1 0.5
v 0.5 0.1 0.4
v 0.5 0.2 0.5
v 0.5 0.2 0.4
v 0.5 0.3 -0.4
v 0.5 0.3 -0.5
v 0.5 0.4 0.5
v 0.5 0.4 0.4
v 0.5 0.4 -0.4
v 0.5 0.5 -0.2
v 0.5 0.5 -0.3
v 0.5 0.5 -0.4
v 0.5 0.5 -0.5
v 0.5 0.6 0.5
v 0.5 0.6 0.4
v 0.5 0.6 -0.2
v 0.5 0.6 -0.3
v 0.5 0.6 -0.4
v 0.5 0.6 -0.5
v 0.5 0.7 0.5
v 0.5 0.7 0.4
v 0.5 0.7 -0.4
v 0.5 0.7 -0.5
v 0.5 0.9 0.5
v 0.5 0.9 0.3
v 0.5 0.9 0
v 0.5 0.9 -0.1
v 0.5 0.9 -0.4
v 0.5 0.9 -0.5
v 0.5 1 0.5
v 0.5 1 0.3
v 0.5 1 0
v 0.5 1 -0.1
v 0.5 1 -0.4
v 0.5 1 -0.5
v -0.5 0 0.5
v -0.5 0.1 0.5
v -0.5 0.2 0.5
v -0.5 0.4 0.5
v -0.5 0.6 0.5
v -0.5 0.7 0.5
v -0.5 0.9 0.5
v -0.5 1 0.5
v -0.4 0.7 0.5
v -0.4 0.8 0.5
v -0.4 0.9 0.5
v -0.4 1 0.5
v -0.3 0.2 0.5
v -0.3 0.4 0.5
v -0.3 0.6 0.5
v -0.3 0.7 0.5
v -0.3 0.8 0.5
v -0.2 0.2 0.5
v -0.2 0.4 0.5
v -0.2 0.6 0.5
v -0.2 0.7 0.5
v -0.2 0.9 0.5
v -0.2 1 0.5
v -0.1 0.9 0.5
v -0.1 1 0.5
v 0 0.9 0.5
v 0 1 0.5
v 0.1 0.9 0.5
v 0.1 1 0.5
v 0.2 0.9 0.5
v 0.2 1 0.5
v 0.3 0.2 0.5
v 0.3 0.4 0.5
v 0.3 0.6 0.5
v 0.3 0.7 0.5
v 0.3 0.9 0.5
v 0.3 1 0.5
v 0.4 0.2 0.5
v 0.4 0.4 0.5
v 0.4 0.6 0.5
v 0.4 0.7 0.5
v 0.4 0.9 0.5
v 0.4 1 0.5
v 0.5 0 0.5
v 0.5 0.1 0.5
v 0.5 0.2 0.5
v 0.5 0.4 0.5
v 0.5 0.6 0.5
v 0.5 0.7 0.5
v 0.5 0.9 0.5
v 0.5 1 0.5
v -0.5 0 -0.5
v -0.5 0.2 -0.5
v -0.5 0.3 -0.5
v -0.5 0.4 -0.5
v -0.5 0.7 -0.5
v -0.5 1 -0.5
v -0.4 0.2 -0.5
v -0.4 0.3 -0.5
v -0.4 0.4 -0.5
v -0.4 0.7 -0.5
v -0.4 0.9 -0.5
v -0.4 1 -0.5
v -0.3 0.3 -0.5
v -0.3 0.5 -0.5
v -0.3 0.6 -0.5
v -0.3 0.7 -0.5
v -0.2 0.9 -0.5
v -0.2 1 -0.5
v -0.1 0.9 -0.5
v -0.1 1 -0.5
v 0 0.9 -0.5
v 0 1 -0.5
v 0.1 0.9 -0.5
v 0.1 1 -0.5
v 0.3 0.9 -0.5
v 0.3 1 -0.5
v 0.4 0.9 -0.5
v 0.4 1 -0.5
v 0.5 0 -0.5
v 0.5 0.3 -0.5
v 0.5 0.5 -0.5
v 0.5 0.6 -0.5
v 0.5 0.7 -0.5
v 0.5 0.9 -0.5
v 0.5 1 -0.5
v -0.5 0 0.5
v 0.5 0 0.5
v -0.4 0 0.4
v 0.5 0 0.4
v -0.5 0 0.1
v -0.4 0 0.1
v -0.5 0 -0.5
v 0.5 0 -0.5
v -0.5 1 0.5
v -0.4 1 0.5
v -0.2 1 0.5
v -0.1 1 0.5
v 0 1 0.5
v 0.1 1 0.5
v 0.2 1 0.5
v 0.3 1 0.5
v 0.4 1 0.5
v 0.5 1 0.5
v -0.5 1 0.4
v -0.4 1 0.4
v -0.1 1 0.4
v 0 1 0.4
v 0.2 1 0.4
v 0.3 1 0.4
v -0.4 1 0.3
v -0.3 1 0.3
v -0.1 1 0.3
v 0 1 0.3
v 0.4 1 0.3
v 0.5 1 0.3
v -0.5 1 0.2
v -0.4 1 0.2
v -0.3 1 0.2
v 0.2 1 0.1
v 0.3 1 0.1
v -0.5 1 0
v -0.4 1 0
v 0 1 0
v 0.1 1 0
v 0.4 1 0
v 0.5 1 0
v -0.5 1 -0.1
v -0.4 1 -0.1
v 0 1 -0.1
v 0.1 1 -0.1
v 0.4 1 -0.1
v 0.5 1 -0.1
v -0.5 1 -0.2
v -0.4 1 -0.2
v -0.2 1 -0.2
v -0.5 1 -0.3
v -0.4 1 -0.3
v 0.2 1 -0.3
v 0.3 1 -0.3
v -0.4 1 -0.4
v -0.2 1 -0.4
v 0.4 1 -0.4
v 0.5 1 -0.4
v -0.5 1 -0.5
v -0.4 1 -0.5
v -0.2 1 -0.5
v -0.1 1 -0.5
v 0 1 -0.5
v 0.1 1 -0.5
v 0.3 1 -0.5
v 0.4 1 -0.5
v 0.5 1 -0.5

# faces
f 4/6/1 2/6/1 1/6/1
f 5/3/1 3/3/1 2/3/1
f 5/6/1 2/6/1 4/6/1
f 6/3/1 5/3/1 4/3/1
f 7/3/1 3/3/1 5/3/1
f 7/3/1 5/3/1 6/3/1
f 8/4/1 7/4/1 6/4/1
f 9/4/1 7/4/1 8/4/1
f 10/4/1 8/4/1 6/4/1
f 11/3/1 9/3/1 8/3/1
f 11/4/1 8/4/1 10/4/1
f 12/3/1 9/3/1 11/3/1
f 13/3/1 11/3/1 10/3/1
f 14/4/1 12/4/1 11/4/1
f 14/3/1 11/3/1 13/3/1
f 15/4/1 14/4/1 13/4/1
f 16/4/1 12/4/1 14/4/1
f 16/4/1 14/4/1 15/4/1
f 17/3/1 16/3/1 15/3/1
f 18/3/1 16/3/1 17/3/1
f 19/3/1 17/3/1 15/3/1
f 20/3/1 17/3/1 19/3/1
f 21/1/1 18/1/1 17/1/1
f 21/3/1 17/3/1 20/3/1
f 22/3/1 16/3/1 18/3/1
f 22/1/1 18/1/1 21/1/1
f 23/3/1 16/3/1 22/3/1
f 24/3/1 16/3/1 23/3/1
f 25/3/1 16/3/1 24/3/1
f 26/5/1 20/5/1 19/5/1
f 27/1/1 21/1/1 20/1/1
f 27/5/1 20/5/1 26/5/1
f 28/5/1 22/5/1 21/5/1
f 28/1/1 21/1/1 27/1/1
f 29/1/1 23/1/1 22/1/1
f 29/5/1 22/5/1 28/5/1
f 30/5/1 24/5/1 23/5/1
f 30/1/1 23/1/1 29/1/1
f 31/1/1 25/1/1 24/1/1
f 31/5/1 24/5/1 30/5/1
f 32/3/1 16/3/1 25/3/1
f 32/1/1 25/1/1 31/1/1
f 33/3/1 16/3/1 32/3/1
f 34/6/2 35/6/2 37/6/2
f 35/3/2 36/3/2 38/3/2
f 37/6/2 35/6/2 38/6/2
f 37/3/2 38/3/2 39/3/2
f 38/3/2 36/3/2 40/3/2
f 39/3/2 38/3/2 40/3/2
f 40/3/2 36/3/2 41/3/2
f 41/3/2 36/3/2 42/3/2
f 39/4/2 40/4/2 43/4/2
f 40/3/2 41/3/2 44/3/2
f 43/4/2 40/4/2 44/4/2
f 41/2/2 42/2/2 45/2/2
f 44/3/2 41/3/2 45/3/2
f 44/2/2 45/2/2 46/2/2
f 46/2/2 45/2/2 47/2/2
f 45/2/2 42/2/2 48/2/2
f 47/2/2 45/2/2 48/2/2
f 48/2/2 42/2/2 49/2/2
f 43/3/2 44/3/2 50/3/2
f 44/2/2 46/2/2 51/2/2
f 50/3/2 44/3/2 51/3/2
f 46/5/2 47/5/2 52/5/2
f 51/2/2 46/2/2 52/2/2
f 47/2/2 48/2/2 53/2/2
f 52/5/2 47/5/2 53/5/2
f 48/3/2 49/3/2 54/3/2
f 53/2/2 48/2/2 54/2/2
f 54/3/2 49/3/2 55/3/2
f 50/4/2 51/4/2 56/4/2
f 51/3/2 52/3/2 57/3/2
f 56/4/2 51/4/2 57/4/2
f 52/3/2 53/3/2 57/3/2
f 53/3/2 54/3/2 57/3/2
f 54/2/2 55/2/2 58/2/2
f 57/3/2 54/3/2 58/3/2
f 58/2/2 55/2/2 59/2/2
f 56/3/2 57/3/2 60/3/2
f 57/3/2 58/3/2 60/3/2
f 58/3/2 59/3/2 60/3/2
f 60/3/2 59/3/2 61/3/2
f 61/3/2 59/3/2 62/3/2
f 62/3/2 59/3/2 63/3/2
f 63/3/2 59/3/2 64/3/2
f 64/3/2 59/3/2 65/3/2
f 60/4/2 61/4/2 66/4/2
f 61/2/2 62/2/2 67/2/2
f 66/4/2 61/4/2 67/4/2
f 62/5/2 63/5/2 68/5/2
f 67/2/2 62/2/2 68/2/2
f 63/2/2 64/2/2 69/2/2
f 68/5/2 63/5/2 69/5/2
f 64/4/2 65/4/2 70/4/2
f 69/2/2 64/2/2 70/2/2
f 70/4/2 65/4/2 71/4/2
f 80/4/3 77/4/3 76/4/3
f 80/3/3 78/3/3 77/3/3
f 81/3/3 78/3/3 80/3/3
f 82/5/3 79/5/3 78/5/3
f 82/3/3 78/3/3 81/3/3
f 83/5/3 79/5/3 82/5/3
f 84/3/3 74/3/3 73/3/3
f 84/4/3 75/4/3 74/4/3
f 85/3/3 76/3/3 75/3/3
f 85/4/3 75/4/3 84/4/3
f 86/4/3 80/4/3 76/4/3
f 86/3/3 76/3/3 85/3/3
f 87/5/3 81/5/3 80/5/3
f 87/4/3 80/4/3 86/4/3
f 88/3/3 82/3/3 81/3/3
f 88/5/3 81/5/3 87/5/3
f 89/3/3 84/3/3 73/3/3
f 89/6/3 86/6/3 85/6/3
f 89/6/3 85/6/3 84/6/3
f 89/6/3 87/6/3 86/6/3
f 90/6/3 87/6/3 89/6/3
f 91/6/3 87/6/3 90/6/3
f 92/3/3 88/3/3 87/3/3
f 92/6/3 87/6/3 91/6/3
f 93/4/3 83/4/3 82/4/3
f 93/3/3 88/3/3 92/3/3
f 93/3/3 82/3/3 88/3/3
f 94/4/3 83/4/3 93/4/3
f 95/3/3 93/3/3 92/3/3
f 95/3/3 94/3/3 93/3/3
f 96/3/3 94/3/3 95/3/3
f 97/3/3 95/3/3 92/3/3
f 97/4/3 96/4/3 95/4/3
f 98/4/3 96/4/3 97/4/3
f 99/3/3 97/3/3 92/3/3
f 99/3/3 98/3/3 97/3/3
f 100/3/3 98/3/3 99/3/3
f 101/3/3 99/3/3 92/3/3
f 101/4/3 100/4/3 99/4/3
f 102/4/3 100/4/3 101/4/3
f 103/4/3 90/4/3 89/4/3
f 103/3/3 89/3/3 73/3/3
f 104/3/3 91/3/3 90/3/3
f 104/4/3 90/4/3 103/4/3
f 105/4/3 92/4/3 91/4/3
f 105/3/3 91/3/3 104/3/3
f 106/3/3 101/3/3 92/3/3
f 106/4/3 92/4/3 105/4/3
f 107/5/3 102/5/3 101/5/3
f 107/3/3 101/3/3 106/3/3
f 108/5/3 102/5/3 107/5/3
f 109/6/3 104/6/3 103/6/3
f 109/3/3 103/3/3 73/3/3
f 109/6/3 106/6/3 105/6/3
f 109/6/3 105/6/3 104/6/3
f 110/6/3 106/6/3 109/6/3
f 111/6/3 106/6/3 110/6/3
f 112/3/3 108/3/3 107/3/3
f 112/6/3 106/6/3 111/6/3
f 112/3/3 107/3/3 106/3/3
f 113/3/3 108/3/3 112/3/3
f 114/3/3 108/3/3 113/3/3
f 115/6/3 73/6/3 72/6/3
f 116/3/3 109/3/3 73/3/3
f 116/6/3 73/6/3 115/6/3
f 117/4/3 110/4/3 109/4/3
f 117/3/3 109/3/3 116/3/3
f 118/3/3 111/3/3 110/3/3
f 118/4/3 110/4/3 117/4/3
f 119/4/3 112/4/3 111/4/3
f 119/3/3 111/3/3 118/3/3
f 120/3/3 113/3/3 112/3/3
f 120/4/3 112/4/3 119/4/3
f 121/4/3 114/4/3 113/4/3
f 121/3/3 113/3/3 120/3/3
f 122/4/3 114/4/3 121/4/3
f 123/3/4 124/3/4 129/3/4
f 124/4/4 125/4/4 129/4/4
f 125/3/4 126/3/4 130/3/4
f 129/4/4 125/4/4 130/4/4
f 126/4/4 127/4/4 131/4/4
f 130/3/4 126/3/4 131/3/4
f 127/3/4 128/3/4 132/3/4
f 131/4/4 127/4/4 132/4/4
f 132/3/4 128/3/4 133/3/4
f 133/3/4 128/3/4 134/3/4
f 130/3/4 131/3/4 135/3/4
f 129/3/4 130/3/4 135/3/4
f 131/3/4 132/3/4 135/3/4
f 132/3/4 133/3/4 135/3/4
f 135/3/4 133/3/4 136/3/4
f 136/3/4 133/3/4 137/3/4
f 137/3/4 133/3/4 138/3/4
f 133/4/4 134/4/4 139/4/4
f 138/3/4 133/3/4 139/3/4
f 139/4/4 134/4/4 140/4/4
f 138/3/4 139/3/4 141/3/4
f 139/3/4 140/3/4 141/3/4
f 141/3/4 140/3/4 142/3/4
f 138/3/4 141/3/4 143/3/4
f 141/4/4 142/4/4 143/4/4
f 143/4/4 142/4/4 144/4/4
f 138/3/4 143/3/4 145/3/4
f 143/3/4 144/3/4 145/3/4
f 145/3/4 144/3/4 146/3/4
f 138/3/4 145/3/4 147/3/4
f 145/4/4 146/4/4 147/4/4
f 147/4/4 146/4/4 148/4/4
f 138/3/4 147/3/4 149/3/4
f 147/3/4 148/3/4 149/3/4
f 149/3/4 148/3/4 150/3/4
f 123/3/4 129/3/4 151/3/4
f 129/3/4 135/3/4 151/3/4
f 135/2/4 136/2/4 152/2/4
f 151/3/4 135/3/4 152/3/4
f 136/3/4 137/3/4 153/3/4
f 152/2/4 136/2/4 153/2/4
f 137/2/4 138/2/4 154/2/4
f 153/3/4 137/3/4 154/3/4
f 138/3/4 149/3/4 155/3/4
f 154/2/4 138/2/4 155/2/4
f 149/4/4 150/4/4 156/4/4
f 155/3/4 149/3/4 156/3/4
f 156/4/4 150/4/4 157/4/4
f 160/6/5 159/6/5 158/6/5
f 161/6/5 159/6/5 160/6/5
f 162/6/5 160/6/5 158/6/5
f 163/3/5 161/3/5 160/3/5
f 163/6/5 160/6/5 162/6/5
f 164/3/5 163/3/5 162/3/5
f 165/3/5 161/3/5 163/3/5
f 165/3/5 163/3/5 164/3/5
f 166/5/6 167/5/6 176/5/6
f 167/4/6 168/4/6 177/4/6
f 176/5/6 167/5/6 177/5/6
f 168/3/6 169/3/6 178/3/6
f 169/4/6 170/4/6 178/4/6
f 170/3/6 171/3/6 179/3/6
f 178/4/6 170/4/6 179/4/6
f 171/4/6 172/4/6 180/4/6
f 172/5/6 173/5/6 180/5/6
f 173/3/6 174/3/6 181/3/6
f 180/5/6 173/5/6 181/5/6
f 177/4/6 168/4/6 182/4/6
f 176/1/6 177/1/6 182/1/6
f 182/4/6 168/4/6 183/4/6
f 168/3/6 178/3/6 184/3/6
f 178/5/6 179/5/6 184/5/6
f 179/3/6 171/3/6 185/3/6
f 184/5/6 179/5/6 185/5/6
f 174/4/6 175/4/6 186/4/6
f 181/3/6 174/3/6 186/3/6
f 186/4/6 175/4/6 187/4/6
f 176/1/6 182/1/6 188/1/6
f 182/5/6 183/5/6 189/5/6
f 188/1/6 182/1/6 189/1/6
f 183/4/6 168/4/6 190/4/6
f 189/5/6 183/5/6 190/5/6
f 180/4/6 181/4/6 191/4/6
f 171/4/6 180/4/6 191/4/6
f 181/3/6 186/3/6 192/3/6
f 191/4/6 181/4/6 192/4/6
f 188/5/6 189/5/6 193/5/6
f 189/4/6 190/4/6 194/4/6
f 193/5/6 189/5/6 194/5/6
f 185/3/6 171/3/6 195/3/6
f 184/4/6 185/4/6 195/4/6
f 171/4/6 191/4/6 196/4/6
f 195/3/6 171/3/6 196/3/6
f 192/3/6 186/3/6 197/3/6
f 186/2/6 187/2/6 197/2/6
f 197/2/6 187/2/6 198/2/6
f 193/1/6 194/1/6 199/1/6
f 194/4/6 190/4/6 200/4/6
f 199/1/6 194/1/6 200/1/6
f 184/4/6 195/4/6 201/4/6
f 195/5/6 196/5/6 201/5/6
f 196/4/6 191/4/6 202/4/6
f 201/5/6 196/5/6 202/5/6
f 192/3/6 197/3/6 203/3/6
f 197/5/6 198/5/6 203/5/6
f 203/5/6 198/5/6 204/5/6
f 199/5/6 200/5/6 205/5/6
f 200/4/6 190/4/6 206/4/6
f 205/5/6 200/5/6 206/5/6
f 190/4/6 168/4/6 207/4/6
f 206/4/6 190/4/6 207/4/6
f 168/3/6 184/3/6 207/3/6
f 205/1/6 206/1/6 208/1/6
f 206/5/6 207/5/6 209/5/6
f 208/1/6 206/1/6 209/1/6
f 191/5/6 192/5/6 210/5/6
f 202/4/6 191/4/6 210/4/6
f 192/3/6 203/3/6 211/3/6
f 210/5/6 192/5/6 211/5/6
f 209/5/6 207/5/6 212/5/6
f 208/3/6 209/3/6 212/3/6
f 207/3/6 184/3/6 213/3/6
f 212/5/6 207/5/6 213/5/6
f 203/2/6 204/2/6 214/2/6
f 211/3/6 203/3/6 214/3/6
f 214/2/6 204/2/6 215/2/6
f 208/3/6 212/3/6 216/3/6
f 212/4/6 213/4/6 217/4/6
f 216/3/6 212/3/6 217/3/6
f 213/3/6 184/3/6 218/3/6
f 217/4/6 213/4/6 218/4/6
f 184/4/6 201/4/6 219/4/6
f 218/3/6 184/3/6 219/3/6
f 201/3/6 202/3/6 220/3/6
f 219/4/6 201/4/6 220/4/6
f 210/4/6 211/4/6 221/4/6
f 220/3/6 202/3/6 221/3/6
f 202/4/6 210/4/6 221/4/6
f 211/3/6 214/3/6 222/3/6
f 221/4/6 211/4/6 222/4/6
f 214/4/6 215/4/6 223/4/6
f 222/3/6 214/3/6 223/3/6
f 223/4/6 215/4/6 224/4/6
